<svg xmlns="http://www.w3.org/2000/svg" width="1100" height="650" viewBox="0 0 1100 650"><defs><marker id="a" markerWidth="10" markerHeight="10" refX="9" refY="3" orient="auto"><path d="M0,0 L0,6 L9,3 z" fill="#333"/></marker></defs><rect width="100%" height="100%" fill="white"/><text x="550" y="45" text-anchor="middle" font-family="Arial" font-size="26" font-weight="bold">C4 Level 2 - Container Diagram</text><rect x="40" y="230" width="170" height="120" rx="10" fill="#eef3f8" stroke="#333" stroke-width="2"/><text x="125" y="262" text-anchor="middle" font-family="Arial" font-size="16" font-weight="bold">Input Module</text><text x="125" y="284" text-anchor="middle" font-family="Arial" font-size="16" >Graph + start + goal</text><text x="125" y="306" text-anchor="middle" font-family="Arial" font-size="16" >Algorithm choice</text><rect x="260" y="230" width="190" height="120" rx="10" fill="#eef3f8" stroke="#333" stroke-width="2"/><text x="355" y="262" text-anchor="middle" font-family="Arial" font-size="16" font-weight="bold">Search Engine</text><text x="355" y="284" text-anchor="middle" font-family="Arial" font-size="16" >BFS / DFS</text><rect x="500" y="230" width="190" height="120" rx="10" fill="#eef3f8" stroke="#333" stroke-width="2"/><text x="595" y="262" text-anchor="middle" font-family="Arial" font-size="16" font-weight="bold">Visited / Memory</text><text x="595" y="284" text-anchor="middle" font-family="Arial" font-size="16" >Visited nodes</text><rect x="740" y="230" width="180" height="120" rx="10" fill="#eef3f8" stroke="#333" stroke-width="2"/><text x="830" y="262" text-anchor="middle" font-family="Arial" font-size="16" font-weight="bold">Path Reconstruction</text><text x="830" y="284" text-anchor="middle" font-family="Arial" font-size="16" >Build final path</text><rect x="955" y="230" width="110" height="120" rx="10" fill="#eef3f8" stroke="#333" stroke-width="2"/><text x="1010" y="262" text-anchor="middle" font-family="Arial" font-size="16" font-weight="bold">Output</text><text x="1010" y="284" text-anchor="middle" font-family="Arial" font-size="16" >Result</text><path d="M210 290 L260 290" fill="none" stroke="#333" stroke-width="2" marker-end="url(#a)"/><text x="215" y="278" font-family="Arial" font-size="14">request</text><path d="M450 290 L500 290" fill="none" stroke="#333" stroke-width="2" marker-end="url(#a)"/><text x="455" y="278" font-family="Arial" font-size="14">visited</text><path d="M690 290 L740 290" fill="none" stroke="#333" stroke-width="2" marker-end="url(#a)"/><text x="695" y="278" font-family="Arial" font-size="14">path</text><path d="M920 290 L955 290" fill="none" stroke="#333" stroke-width="2" marker-end="url(#a)"/><text x="920" y="278" font-family="Arial" font-size="14">result</text></svg>