<svg xmlns="http://www.w3.org/2000/svg" width="1100" height="650" viewBox="0 0 1100 650"><defs><marker id="a" markerWidth="10" markerHeight="10" refX="9" refY="3" orient="auto"><path d="M0,0 L0,6 L9,3 z" fill="#333"/></marker></defs><rect width="100%" height="100%" fill="white"/><text x="550" y="45" text-anchor="middle" font-family="Arial" font-size="26" font-weight="bold">C4 Level 4 - Code Level Overview</text><rect x="80" y="220" width="260" height="140" rx="10" fill="#eef3f8" stroke="#333" stroke-width="2"/><text x="210" y="252" text-anchor="middle" font-family="Arial" font-size="16" font-weight="bold">GraphData</text><text x="210" y="274" text-anchor="middle" font-family="Arial" font-size="16" >GRAPH adjacency-list</text><text x="210" y="296" text-anchor="middle" font-family="Arial" font-size="16" >dictionary</text><rect x="420" y="220" width="300" height="140" rx="10" fill="#eef3f8" stroke="#333" stroke-width="2"/><text x="570" y="252" text-anchor="middle" font-family="Arial" font-size="16" font-weight="bold">SearchFunctions</text><text x="570" y="274" text-anchor="middle" font-family="Arial" font-size="16" >bfs(graph,start,goal)</text><text x="570" y="296" text-anchor="middle" font-family="Arial" font-size="16" >dfs(graph,start,goal)</text><rect x="800" y="220" width="220" height="140" rx="10" fill="#eef3f8" stroke="#333" stroke-width="2"/><text x="910" y="252" text-anchor="middle" font-family="Arial" font-size="16" font-weight="bold">Benchmark</text><text x="910" y="274" text-anchor="middle" font-family="Arial" font-size="16" >benchmark(...)</text><rect x="420" y="450" width="300" height="100" rx="10" fill="#eef3f8" stroke="#333" stroke-width="2"/><text x="570" y="482" text-anchor="middle" font-family="Arial" font-size="16" font-weight="bold">Python Runtime</text><text x="570" y="504" text-anchor="middle" font-family="Arial" font-size="16" >collections.deque + perf_counter</text><path d="M340 290 L420 290" fill="none" stroke="#333" stroke-width="2" marker-end="url(#a)"/><text x="355" y="278" font-family="Arial" font-size="14">graph</text><path d="M720 290 L800 290" fill="none" stroke="#333" stroke-width="2" marker-end="url(#a)"/><text x="735" y="278" font-family="Arial" font-size="14">timing</text><path d="M570 360 L570 450" fill="none" stroke="#333" stroke-width="2" marker-end="url(#a)"/><text x="585" y="405" font-family="Arial" font-size="14">runtime support</text></svg>